<svg xmlns="http://www.w3.org/2000/svg" width="960" height="420" viewBox="0 0 960 420">
  <rect width="960" height="420" fill="#fff"/>
  <text x="480" y="42" text-anchor="middle" font-family="Arial, sans-serif" font-size="26" fill="#222">PQ와 HLG 전송 곡선 개념 비교</text>
  <line x1="80" y1="340" x2="880" y2="340" stroke="#333" stroke-width="2"/>
  <line x1="80" y1="340" x2="80" y2="80" stroke="#333" stroke-width="2"/>
  <text x="480" y="382" text-anchor="middle" font-family="Arial, sans-serif" font-size="16" fill="#333">정규화된 입력 코드값 / 장면 신호</text>
  <text x="30" y="210" transform="rotate(-90 30 210)" text-anchor="middle" font-family="Arial, sans-serif" font-size="16" fill="#333">정규화된 출력</text>
  <polyline points="80.0,340.0 81.6,340.0 83.2,340.0 84.8,340.0 86.4,333.1 88.0,326.5 89.6,321.0 91.2,316.3 92.8,312.2 94.4,308.5 96.0,305.2 97.6,302.1 99.2,299.3 100.8,296.6 102.4,294.2 104.0,291.9 105.6,289.7 107.2,287.6 108.8,285.6 110.4,283.8 112.0,282.0 113.6,280.2 115.2,278.6 116.8,277.0 118.4,275.4 120.0,274.0 121.6,272.5 123.2,271.1 124.8,269.8 126.4,268.4 128.0,267.2 129.6,265.9 131.2,264.7 132.8,263.5 134.4,262.4 136.0,261.2 137.6,260.1 139.2,259.1 140.8,258.0 142.4,257.0 144.0,255.9 145.6,254.9 147.2,254.0 148.8,253.0 150.4,252.1 152.0,251.1 153.6,250.2 155.2,249.3 156.8,248.4 158.4,247.6 160.0,246.7 161.6,245.9 163.2,245.1 164.8,244.2 166.4,243.4 168.0,242.6 169.6,241.8 171.2,241.1 172.8,240.3 174.4,239.5 176.0,238.8 177.6,238.1 179.2,237.3 180.8,236.6 182.4,235.9 184.0,235.2 185.6,234.5 187.2,233.8 188.8,233.1 190.4,232.5 192.0,231.8 193.6,231.1 195.2,230.5 196.8,229.8 198.4,229.2 200.0,228.6 201.6,227.9 203.2,227.3 204.8,226.7 206.4,226.1 208.0,225.5 209.6,224.9 211.2,224.3 212.8,223.7 214.4,223.1 216.0,222.5 217.6,221.9 219.2,221.3 220.8,220.8 222.4,220.2 224.0,219.6 225.6,219.1 227.2,218.5 228.8,218.0 230.4,217.4 232.0,216.9 233.6,216.4 235.2,215.8 236.8,215.3 238.4,214.8 240.0,214.3 241.6,213.7 243.2,213.2 244.8,212.7 246.4,212.2 248.0,211.7 249.6,211.2 251.2,210.7 252.8,210.2 254.4,209.7 256.0,209.2 257.6,208.7 259.2,208.2 260.8,207.7 262.4,207.3 264.0,206.8 265.6,206.3 267.2,205.8 268.8,205.4 270.4,204.9 272.0,204.4 273.6,204.0 275.2,203.5 276.8,203.0 278.4,202.6 280.0,202.1 281.6,201.7 283.2,201.2 284.8,200.8 286.4,200.3 288.0,199.9 289.6,199.4 291.2,199.0 292.8,198.6 294.4,198.1 296.0,197.7 297.6,197.2 299.2,196.8 300.8,196.4 302.4,196.0 304.0,195.5 305.6,195.1 307.2,194.7 308.8,194.3 310.4,193.8 312.0,193.4 313.6,193.0 315.2,192.6 316.8,192.2 318.4,191.8 320.0,191.4 321.6,191.0 323.2,190.6 324.8,190.1 326.4,189.7 328.0,189.3 329.6,188.9 331.2,188.5 332.8,188.1 334.4,187.7 336.0,187.3 337.6,187.0 339.2,186.6 340.8,186.2 342.4,185.8 344.0,185.4 345.6,185.0 347.2,184.6 348.8,184.2 350.4,183.8 352.0,183.5 353.6,183.1 355.2,182.7 356.8,182.3 358.4,181.9 360.0,181.6 361.6,181.2 363.2,180.8 364.8,180.4 366.4,180.1 368.0,179.7 369.6,179.3 371.2,178.9 372.8,178.6 374.4,178.2 376.0,177.8 377.6,177.5 379.2,177.1 380.8,176.7 382.4,176.4 384.0,176.0 385.6,175.7 387.2,175.3 388.8,174.9 390.4,174.6 392.0,174.2 393.6,173.9 395.2,173.5 396.8,173.2 398.4,172.8 400.0,172.4 401.6,172.1 403.2,171.7 404.8,171.4 406.4,171.0 408.0,170.7 409.6,170.3 411.2,170.0 412.8,169.6 414.4,169.3 416.0,168.9 417.6,168.6 419.2,168.3 420.8,167.9 422.4,167.6 424.0,167.2 425.6,166.9 427.2,166.5 428.8,166.2 430.4,165.9 432.0,165.5 433.6,165.2 435.2,164.8 436.8,164.5 438.4,164.2 440.0,163.8 441.6,163.5 443.2,163.2 444.8,162.8 446.4,162.5 448.0,162.2 449.6,161.8 451.2,161.5 452.8,161.2 454.4,160.8 456.0,160.5 457.6,160.2 459.2,159.8 460.8,159.5 462.4,159.2 464.0,158.8 465.6,158.5 467.2,158.2 468.8,157.9 470.4,157.5 472.0,157.2 473.6,156.9 475.2,156.6 476.8,156.2 478.4,155.9 480.0,155.6 481.6,155.3 483.2,154.9 484.8,154.6 486.4,154.3 488.0,154.0 489.6,153.7 491.2,153.3 492.8,153.0 494.4,152.7 496.0,152.4 497.6,152.1 499.2,151.7 500.8,151.4 502.4,151.1 504.0,150.8 505.6,150.5 507.2,150.2 508.8,149.8 510.4,149.5 512.0,149.2 513.6,148.9 515.2,148.6 516.8,148.3 518.4,147.9 520.0,147.6 521.6,147.3 523.2,147.0 524.8,146.7 526.4,146.4 528.0,146.1 529.6,145.8 531.2,145.5 532.8,145.1 534.4,144.8 536.0,144.5 537.6,144.2 539.2,143.9 540.8,143.6 542.4,143.3 544.0,143.0 545.6,142.7 547.2,142.4 548.8,142.0 550.4,141.7 552.0,141.4 553.6,141.1 555.2,140.8 556.8,140.5 558.4,140.2 560.0,139.9 561.6,139.6 563.2,139.3 564.8,139.0 566.4,138.7 568.0,138.4 569.6,138.1 571.2,137.8 572.8,137.5 574.4,137.2 576.0,136.8 577.6,136.5 579.2,136.2 580.8,135.9 582.4,135.6 584.0,135.3 585.6,135.0 587.2,134.7 588.8,134.4 590.4,134.1 592.0,133.8 593.6,133.5 595.2,133.2 596.8,132.9 598.4,132.6 600.0,132.3 601.6,132.0 603.2,131.7 604.8,131.4 606.4,131.1 608.0,130.8 609.6,130.5 611.2,130.2 612.8,129.9 614.4,129.6 616.0,129.3 617.6,129.0 619.2,128.7 620.8,128.4 622.4,128.1 624.0,127.8 625.6,127.5 627.2,127.2 628.8,126.9 630.4,126.6 632.0,126.3 633.6,126.0 635.2,125.7 636.8,125.4 638.4,125.1 640.0,124.8 641.6,124.5 643.2,124.2 644.8,123.9 646.4,123.6 648.0,123.3 649.6,123.0 651.2,122.7 652.8,122.5 654.4,122.2 656.0,121.9 657.6,121.6 659.2,121.3 660.8,121.0 662.4,120.7 664.0,120.4 665.6,120.1 667.2,119.8 668.8,119.5 670.4,119.2 672.0,118.9 673.6,118.6 675.2,118.3 676.8,118.0 678.4,117.7 680.0,117.4 681.6,117.1 683.2,116.8 684.8,116.5 686.4,116.2 688.0,115.9 689.6,115.6 691.2,115.3 692.8,115.0 694.4,114.8 696.0,114.5 697.6,114.2 699.2,113.9 700.8,113.6 702.4,113.3 704.0,113.0 705.6,112.7 707.2,112.4 708.8,112.1 710.4,111.8 712.0,111.5 713.6,111.2 715.2,110.9 716.8,110.6 718.4,110.3 720.0,110.0 721.6,109.7 723.2,109.4 724.8,109.1 726.4,108.8 728.0,108.5 729.6,108.2 731.2,107.9 732.8,107.7 734.4,107.4 736.0,107.1 737.6,106.8 739.2,106.5 740.8,106.2 742.4,105.9 744.0,105.6 745.6,105.3 747.2,105.0 748.8,104.7 750.4,104.4 752.0,104.1 753.6,103.8 755.2,103.5 756.8,103.2 758.4,102.9 760.0,102.6 761.6,102.3 763.2,102.0 764.8,101.7 766.4,101.4 768.0,101.1 769.6,100.8 771.2,100.5 772.8,100.2 774.4,99.9 776.0,99.6 777.6,99.3 779.2,99.0 780.8,98.7 782.4,98.5 784.0,98.2 785.6,97.9 787.2,97.6 788.8,97.3 790.4,97.0 792.0,96.7 793.6,96.4 795.2,96.1 796.8,95.8 798.4,95.5 800.0,95.2 801.6,94.9 803.2,94.6 804.8,94.3 806.4,94.0 808.0,93.7 809.6,93.4 811.2,93.1 812.8,92.8 814.4,92.5 816.0,92.2 817.6,91.9 819.2,91.6 820.8,91.3 822.4,91.0 824.0,90.7 825.6,90.4 827.2,90.1 828.8,89.8 830.4,89.5 832.0,89.2 833.6,88.8 835.2,88.5 836.8,88.2 838.4,87.9 840.0,87.6 841.6,87.3 843.2,87.0 844.8,86.7 846.4,86.4 848.0,86.1 849.6,85.8 851.2,85.5 852.8,85.2 854.4,84.9 856.0,84.6 857.6,84.3 859.2,84.0 860.8,83.7 862.4,83.4 864.0,83.1 865.6,82.8 867.2,82.5 868.8,82.2 870.4,81.8 872.0,81.5 873.6,81.2 875.2,80.9 876.8,80.6 878.4,80.3 880.0,80.0" fill="none" stroke="#e23d28" stroke-width="4"/>
  <polyline points="80.0,340.0 81.6,319.9 83.2,311.5 84.8,305.1 86.4,299.7 88.0,295.0 89.6,290.7 91.2,286.7 92.8,283.0 94.4,279.6 96.0,276.3 97.6,273.2 99.2,270.2 100.8,267.4 102.4,264.6 104.0,262.0 105.6,259.4 107.2,257.0 108.8,254.6 110.4,252.2 112.0,249.9 113.6,247.7 115.2,245.5 116.8,243.4 118.4,241.3 120.0,239.3 121.6,237.3 123.2,235.4 124.8,233.4 126.4,231.5 128.0,229.7 129.6,227.9 131.2,226.1 132.8,224.3 134.4,222.6 136.0,220.9 137.6,219.2 139.2,217.5 140.8,215.9 142.4,214.2 144.0,212.6 145.6,211.0 147.2,209.5 148.8,208.0 150.4,206.5 152.0,205.1 153.6,203.7 155.2,202.3 156.8,201.0 158.4,199.8 160.0,198.5 161.6,197.3 163.2,196.2 164.8,195.0 166.4,193.9 168.0,192.8 169.6,191.7 171.2,190.7 172.8,189.7 174.4,188.7 176.0,187.7 177.6,186.8 179.2,185.8 180.8,184.9 182.4,184.0 184.0,183.1 185.6,182.2 187.2,181.4 188.8,180.6 190.4,179.7 192.0,178.9 193.6,178.1 195.2,177.4 196.8,176.6 198.4,175.8 200.0,175.1 201.6,174.4 203.2,173.6 204.8,172.9 206.4,172.2 208.0,171.6 209.6,170.9 211.2,170.2 212.8,169.6 214.4,168.9 216.0,168.3 217.6,167.6 219.2,167.0 220.8,166.4 222.4,165.8 224.0,165.2 225.6,164.6 227.2,164.0 228.8,163.4 230.4,162.9 232.0,162.3 233.6,161.7 235.2,161.2 236.8,160.7 238.4,160.1 240.0,159.6 241.6,159.1 243.2,158.5 244.8,158.0 246.4,157.5 248.0,157.0 249.6,156.5 251.2,156.0 252.8,155.5 254.4,155.1 256.0,154.6 257.6,154.1 259.2,153.7 260.8,153.2 262.4,152.7 264.0,152.3 265.6,151.8 267.2,151.4 268.8,150.9 270.4,150.5 272.0,150.1 273.6,149.7 275.2,149.2 276.8,148.8 278.4,148.4 280.0,148.0 281.6,147.6 283.2,147.2 284.8,146.8 286.4,146.4 288.0,146.0 289.6,145.6 291.2,145.2 292.8,144.8 294.4,144.4 296.0,144.0 297.6,143.7 299.2,143.3 300.8,142.9 302.4,142.6 304.0,142.2 305.6,141.8 307.2,141.5 308.8,141.1 310.4,140.8 312.0,140.4 313.6,140.1 315.2,139.7 316.8,139.4 318.4,139.0 320.0,138.7 321.6,138.4 323.2,138.0 324.8,137.7 326.4,137.4 328.0,137.0 329.6,136.7 331.2,136.4 332.8,136.1 334.4,135.8 336.0,135.4 337.6,135.1 339.2,134.8 340.8,134.5 342.4,134.2 344.0,133.9 345.6,133.6 347.2,133.3 348.8,133.0 350.4,132.7 352.0,132.4 353.6,132.1 355.2,131.8 356.8,131.5 358.4,131.2 360.0,131.0 361.6,130.7 363.2,130.4 364.8,130.1 366.4,129.8 368.0,129.6 369.6,129.3 371.2,129.0 372.8,128.7 374.4,128.5 376.0,128.2 377.6,127.9 379.2,127.7 380.8,127.4 382.4,127.1 384.0,126.9 385.6,126.6 387.2,126.4 388.8,126.1 390.4,125.8 392.0,125.6 393.6,125.3 395.2,125.1 396.8,124.8 398.4,124.6 400.0,124.3 401.6,124.1 403.2,123.8 404.8,123.6 406.4,123.4 408.0,123.1 409.6,122.9 411.2,122.6 412.8,122.4 414.4,122.2 416.0,121.9 417.6,121.7 419.2,121.5 420.8,121.2 422.4,121.0 424.0,120.8 425.6,120.5 427.2,120.3 428.8,120.1 430.4,119.9 432.0,119.6 433.6,119.4 435.2,119.2 436.8,119.0 438.4,118.7 440.0,118.5 441.6,118.3 443.2,118.1 444.8,117.9 446.4,117.7 448.0,117.5 449.6,117.2 451.2,117.0 452.8,116.8 454.4,116.6 456.0,116.4 457.6,116.2 459.2,116.0 460.8,115.8 462.4,115.6 464.0,115.4 465.6,115.2 467.2,115.0 468.8,114.8 470.4,114.6 472.0,114.4 473.6,114.2 475.2,114.0 476.8,113.8 478.4,113.6 480.0,113.4 481.6,113.2 483.2,113.0 484.8,112.8 486.4,112.6 488.0,112.4 489.6,112.2 491.2,112.0 492.8,111.8 494.4,111.6 496.0,111.5 497.6,111.3 499.2,111.1 500.8,110.9 502.4,110.7 504.0,110.5 505.6,110.3 507.2,110.2 508.8,110.0 510.4,109.8 512.0,109.6 513.6,109.4 515.2,109.3 516.8,109.1 518.4,108.9 520.0,108.7 521.6,108.6 523.2,108.4 524.8,108.2 526.4,108.0 528.0,107.9 529.6,107.7 531.2,107.5 532.8,107.3 534.4,107.2 536.0,107.0 537.6,106.8 539.2,106.7 540.8,106.5 542.4,106.3 544.0,106.2 545.6,106.0 547.2,105.8 548.8,105.7 550.4,105.5 552.0,105.3 553.6,105.2 555.2,105.0 556.8,104.8 558.4,104.7 560.0,104.5 561.6,104.3 563.2,104.2 564.8,104.0 566.4,103.9 568.0,103.7 569.6,103.6 571.2,103.4 572.8,103.2 574.4,103.1 576.0,102.9 577.6,102.8 579.2,102.6 580.8,102.5 582.4,102.3 584.0,102.2 585.6,102.0 587.2,101.8 588.8,101.7 590.4,101.5 592.0,101.4 593.6,101.2 595.2,101.1 596.8,100.9 598.4,100.8 600.0,100.6 601.6,100.5 603.2,100.3 604.8,100.2 606.4,100.1 608.0,99.9 609.6,99.8 611.2,99.6 612.8,99.5 614.4,99.3 616.0,99.2 617.6,99.0 619.2,98.9 620.8,98.8 622.4,98.6 624.0,98.5 625.6,98.3 627.2,98.2 628.8,98.0 630.4,97.9 632.0,97.8 633.6,97.6 635.2,97.5 636.8,97.3 638.4,97.2 640.0,97.1 641.6,96.9 643.2,96.8 644.8,96.7 646.4,96.5 648.0,96.4 649.6,96.3 651.2,96.1 652.8,96.0 654.4,95.8 656.0,95.7 657.6,95.6 659.2,95.4 660.8,95.3 662.4,95.2 664.0,95.1 665.6,94.9 667.2,94.8 668.8,94.7 670.4,94.5 672.0,94.4 673.6,94.3 675.2,94.1 676.8,94.0 678.4,93.9 680.0,93.8 681.6,93.6 683.2,93.5 684.8,93.4 686.4,93.2 688.0,93.1 689.6,93.0 691.2,92.9 692.8,92.7 694.4,92.6 696.0,92.5 697.6,92.4 699.2,92.2 700.8,92.1 702.4,92.0 704.0,91.9 705.6,91.7 707.2,91.6 708.8,91.5 710.4,91.4 712.0,91.3 713.6,91.1 715.2,91.0 716.8,90.9 718.4,90.8 720.0,90.7 721.6,90.5 723.2,90.4 724.8,90.3 726.4,90.2 728.0,90.1 729.6,89.9 731.2,89.8 732.8,89.7 734.4,89.6 736.0,89.5 737.6,89.4 739.2,89.2 740.8,89.1 742.4,89.0 744.0,88.9 745.6,88.8 747.2,88.7 748.8,88.6 750.4,88.4 752.0,88.3 753.6,88.2 755.2,88.1 756.8,88.0 758.4,87.9 760.0,87.8 761.6,87.6 763.2,87.5 764.8,87.4 766.4,87.3 768.0,87.2 769.6,87.1 771.2,87.0 772.8,86.9 774.4,86.8 776.0,86.6 777.6,86.5 779.2,86.4 780.8,86.3 782.4,86.2 784.0,86.1 785.6,86.0 787.2,85.9 788.8,85.8 790.4,85.7 792.0,85.6 793.6,85.5 795.2,85.3 796.8,85.2 798.4,85.1 800.0,85.0 801.6,84.9 803.2,84.8 804.8,84.7 806.4,84.6 808.0,84.5 809.6,84.4 811.2,84.3 812.8,84.2 814.4,84.1 816.0,84.0 817.6,83.9 819.2,83.8 820.8,83.7 822.4,83.6 824.0,83.5 825.6,83.4 827.2,83.3 828.8,83.2 830.4,83.1 832.0,82.9 833.6,82.8 835.2,82.7 836.8,82.6 838.4,82.5 840.0,82.4 841.6,82.3 843.2,82.2 844.8,82.1 846.4,82.0 848.0,81.9 849.6,81.8 851.2,81.7 852.8,81.6 854.4,81.5 856.0,81.5 857.6,81.4 859.2,81.3 860.8,81.2 862.4,81.1 864.0,81.0 865.6,80.9 867.2,80.8 868.8,80.7 870.4,80.6 872.0,80.5 873.6,80.4 875.2,80.3 876.8,80.2 878.4,80.1 880.0,80.0" fill="none" stroke="#1c6ed2" stroke-width="4"/>
  <rect x="625" y="95" width="250" height="92" rx="6" fill="#ffffff" stroke="#bbb"/>
  <line x1="650" y1="125" x2="710" y2="125" stroke="#e23d28" stroke-width="4"/>
  <text x="725" y="131" font-family="Arial, sans-serif" font-size="16" fill="#222">PQ/ST 2084: 절대 휘도 기반</text>
  <line x1="650" y1="160" x2="710" y2="160" stroke="#1c6ed2" stroke-width="4"/>
  <text x="725" y="166" font-family="Arial, sans-serif" font-size="16" fill="#222">HLG: 상대 밝기 기반</text>
  <text x="480" y="402" text-anchor="middle" font-family="Arial, sans-serif" font-size="13" fill="#666">교육용 보조 도해: 실제 표준 수식/축 범위는 발표 본문에서 별도로 설명한다.</text>
</svg>
